HIERARCHY
ROOT Hips
{
	OFFSET 0.00000 0.00000 0.00000
	CHANNELS 6 Xposition Yposition Zposition Zrotation Yrotation Xrotation 
	JOINT LHipJoint
	{
		OFFSET 0 0 0
		CHANNELS 3 Zrotation Yrotation Xrotation
		JOINT LeftUpLeg
		{
			OFFSET 1.33213 -1.58186 0.78596
			CHANNELS 3 Zrotation Yrotation Xrotation
			JOINT LeftLeg
			{
				OFFSET 2.29717 -6.31144 0.00000
				CHANNELS 3 Zrotation Yrotation Xrotation
				JOINT LeftFoot
				{
					OFFSET 2.38430 -6.55082 0.00000
					CHANNELS 3 Zrotation Yrotation Xrotation
					JOINT LeftToeBase
					{
						OFFSET 0.11863 -0.32594 1.77568
						CHANNELS 3 Zrotation Yrotation Xrotation
						End Site
						{
							OFFSET 0.00000 -0.00000 0.91633
						}
					}
				}
			}
		}
	}
	JOINT RHipJoint
	{
		OFFSET 0 0 0
		CHANNELS 3 Zrotation Yrotation Xrotation
		JOINT RightUpLeg
		{
			OFFSET -1.41575 -1.58186 0.78596
			CHANNELS 3 Zrotation Yrotation Xrotation
			JOINT RightLeg
			{
				OFFSET -2.42012 -6.64922 0.00000
				CHANNELS 3 Zrotation Yrotation Xrotation
				JOINT RightFoot
				{
					OFFSET -2.47254 -6.79327 0.00000
					CHANNELS 3 Zrotation Yrotation Xrotation
					JOINT RightToeBase
					{
						OFFSET -0.15219 -0.41813 1.93430
						CHANNELS 3 Zrotation Yrotation Xrotation
						End Site
						{
							OFFSET -0.00000 -0.00000 0.99984
						}
					}
				}
			}
		}
	}
	JOINT LowerBack
	{
		OFFSET 0 0 0
		CHANNELS 3 Zrotation Yrotation Xrotation
		JOINT Spine
		{
			OFFSET -0.04717 2.09389 -0.14516
			CHANNELS 3 Zrotation Yrotation Xrotation
			JOINT Spine1
			{
				OFFSET 0.02825 2.09433 -0.11325
				CHANNELS 3 Zrotation Yrotation Xrotation
				JOINT Neck
				{
					OFFSET 0 0 0
					CHANNELS 3 Zrotation Yrotation Xrotation
					JOINT Neck1
					{
						OFFSET -0.01210 1.39029 0.12448
						CHANNELS 3 Zrotation Yrotation Xrotation
						JOINT Head
						{
							OFFSET 0.09492 1.38365 0.14559
							CHANNELS 3 Zrotation Yrotation Xrotation
							End Site
							{
								OFFSET 0.03402 1.40343 0.03708
							}
						}
					}
				}
				JOINT LeftShoulder
				{
					OFFSET 0 0 0
					CHANNELS 3 Zrotation Yrotation Xrotation
					JOINT LeftArm
					{
						OFFSET 2.83352 1.10671 -0.20481
						CHANNELS 3 Zrotation Yrotation Xrotation
						JOINT LeftForeArm
						{
							OFFSET 4.77195 -0.00000 -0.00000
							CHANNELS 3 Zrotation Yrotation Xrotation
							JOINT LeftHand
							{
								OFFSET 2.98444 -0.00000 0.00000
								CHANNELS 3 Zrotation Yrotation Xrotation
								JOINT LeftFingerBase
								{
									OFFSET 0 0 0
									CHANNELS 3 Zrotation Yrotation Xrotation
									JOINT LeftHandIndex1
									{
										OFFSET 0.99228 -0.00000 0.00000
										CHANNELS 3 Zrotation Yrotation Xrotation
										End Site
										{
											OFFSET 0.80001 -0.00000 0.00000
										}
									}
								}
								JOINT LThumb
								{
									OFFSET 0 0 0
									CHANNELS 3 Zrotation Yrotation Xrotation
									End Site
									{
										OFFSET 0.81222 -0.00000 0.81222
									}
								}
							}
						}
					}
				}
				JOINT RightShoulder
				{
					OFFSET 0 0 0
					CHANNELS 3 Zrotation Yrotation Xrotation
					JOINT RightArm
					{
						OFFSET -3.23760 1.11106 0.06723
						CHANNELS 3 Zrotation Yrotation Xrotation
						JOINT RightForeArm
						{
							OFFSET -4.62052 -0.00000 0.00000
							CHANNELS 3 Zrotation Yrotation Xrotation
							JOINT RightHand
							{
								OFFSET -2.95332 -0.00000 0.00000
								CHANNELS 3 Zrotation Yrotation Xrotation
								JOINT RightFingerBase
								{
									OFFSET 0 0 0
									CHANNELS 3 Zrotation Yrotation Xrotation
									JOINT RightHandIndex1
									{
										OFFSET -0.99096 -0.00000 0.00000
										CHANNELS 3 Zrotation Yrotation Xrotation
										End Site
										{
											OFFSET -0.79893 -0.00000 0.00000
										}
									}
								}
								JOINT RThumb
								{
									OFFSET 0 0 0
									CHANNELS 3 Zrotation Yrotation Xrotation
									End Site
									{
										OFFSET -0.81113 -0.00000 0.81113
									}
								}
							}
						}
					}
				}
			}
		}
	}
}
MOTION
Frames: 10
Frame Time: .0083333
-9.5160 16.4381 22.2473 -180.2590 -2.4793 -170.7690 0.0000 0.0000 0.0000 -17.8617 -4.7679 -6.5111 5.2698 13.6813 41.9757 0.4524 3.9529 11.9692 0.9379 6.1685 17.2742 0.0000 0.0000 0.0000 23.6734 4.4983 -29.7443 -2.4962 -9.8309 28.4310 0.2319 13.1707 -5.9288 -2.3150 -9.4935 27.3515 -3.6809 -3.9831 -9.0195 0.8278 -4.9523 1.7329 2.1691 -2.5978 7.2787 -5.6068 -2.6952 0.8412 10.1470 -3.0254 -5.6925 4.4262 -1.5020 -1.7277 0.0000 -0.0000 0.0000 -88.7807 -1.8528 17.5902 10.7227 -17.8620 -1.6899 -0.0000 -0.0000 29.3159 4.4143 10.3971 0.7982 -7.1250 0.0000 -0.0000 -19.5942 39.6251 2.7175 0.0000 -0.0000 0.0000 91.3935 -8.7519 0.6529 -14.0212 22.7649 -2.8363 0.0000 0.0000 32.1266 2.7550 -6.2771 -0.3015 7.1250 -0.0000 -0.0000 24.1711 -35.2803 6.2400
-9.4611 16.4521 22.0504 -179.9650 -1.4892 -170.8870 0.0000 0.0000 0.0000 -17.2813 -4.7553 -9.2896 6.5452 14.9366 47.1325 0.4942 5.8762 12.5709 0.9216 6.1161 17.1217 0.0000 0.0000 0.0000 24.4832 4.1062 -28.6766 -2.4057 -9.6645 27.8969 0.3224 14.3087 -5.6957 -2.3830 -9.6219 27.7609 -3.4331 -3.8004 -8.8665 0.8211 -4.7416 1.7087 2.0698 -2.4827 7.1273 -5.5188 -2.7032 0.9990 10.0226 -3.0550 -5.6724 4.3674 -1.5237 -1.7499 0.0000 -0.0000 0.0000 -88.7481 -1.4542 17.1375 10.9184 -18.1630 -1.7504 -0.0000 -0.0000 29.3578 4.5431 10.5681 0.8349 -7.1250 0.0000 -0.0000 -19.5366 39.7971 2.6218 0.0000 -0.0000 0.0000 91.3480 -8.6670 1.5861 -14.3821 23.2783 -2.9774 0.0000 0.0000 31.1977 2.9704 -5.9362 -0.3075 7.1250 -0.0000 -0.0000 24.2404 -34.9548 6.4717
-9.4008 16.4665 21.8699 -179.6730 -0.6779 -170.8690 0.0000 0.0000 0.0000 -16.6441 -5.0806 -12.2833 7.8394 15.9998 51.9820 0.5146 7.0620 12.9604 0.5109 4.5814 12.7185 0.0000 0.0000 0.0000 25.2397 3.9160 -27.7840 -2.3301 -9.5222 27.4429 0.3822 15.1220 -5.6910 -2.4365 -9.7215 28.0795 -3.2918 -3.6727 -8.8030 0.8543 -4.5911 1.7300 2.0535 -2.4042 7.0941 -5.5531 -2.6935 1.1392 10.0880 -3.0343 -5.7936 4.4044 -1.5178 -1.8165 0.0000 0.0000 0.0000 -88.7267 -1.2835 16.7017 11.0742 -18.4020 -1.7993 -0.0000 -0.0000 29.0949 5.0077 10.5836 0.9220 -7.1250 0.0000 -0.0000 -19.1532 39.8506 2.5392 0.0000 0.0000 0.0000 91.2517 -8.1994 2.3026 -14.5621 23.5326 -3.0490 0.0000 0.0000 30.7136 3.0601 -5.7237 -0.3055 7.1250 -0.0000 -0.0000 24.2495 -34.7551 6.6040
-9.3435 16.4745 21.6961 -179.5230 0.1511 -170.7830 0.0000 0.0000 0.0000 -16.2208 -5.6217 -15.3119 9.0756 16.8561 56.3510 0.4994 7.6402 12.8836 0.4747 4.4188 12.2578 0.0000 0.0000 0.0000 25.7785 3.7820 -27.0111 -2.2693 -9.4058 27.0733 0.4445 15.9235 -5.6979 -2.5181 -9.8707 28.5591 -3.2979 -3.5669 -8.8756 0.8546 -4.4462 1.8140 2.0728 -2.3355 7.2161 -5.5569 -2.6994 1.1915 10.1503 -3.0237 -5.9626 4.4331 -1.5144 -1.8823 -0.0000 -0.0000 0.0000 -88.6944 -1.2313 16.3856 11.2490 -18.6689 -1.8548 -0.0000 -0.0000 28.7242 5.5008 10.5972 1.0146 -7.1250 0.0000 -0.0000 -18.7443 39.9047 2.4542 -0.0000 -0.0000 0.0000 91.1414 -7.4974 2.9077 -14.6781 23.6958 -3.0954 0.0000 0.0000 30.7140 2.9557 -5.6338 -0.2904 7.1250 -0.0000 -0.0000 24.1441 -34.6795 6.6191
-9.2943 16.4750 21.5225 -179.5290 1.0310 -170.8930 0.0000 0.0000 0.0000 -16.0759 -6.3330 -17.8334 10.1679 17.5032 60.0480 0.2965 7.5817 10.3283 0.5640 4.8098 13.3670 0.0000 0.0000 0.0000 26.0933 3.4418 -26.0642 -2.2103 -9.2909 26.7097 0.5333 16.9130 -5.6125 -2.6239 -10.0597 29.1703 -3.3931 -3.4671 -8.7745 0.7967 -4.3009 1.9170 2.0907 -2.2692 7.2611 -5.3763 -2.6850 1.2724 9.9799 -3.0107 -6.0092 4.3388 -1.5128 -1.9176 -0.0000 0.0000 0.0000 -88.7216 -1.1748 16.0310 11.3756 -18.8617 -1.8956 -0.0000 -0.0000 28.2492 5.8451 10.8432 1.1033 -7.1250 0.0000 -0.0000 -18.5255 40.1677 2.2978 -0.0000 0.0000 0.0000 90.9968 -6.9873 3.6800 -14.8671 23.9606 -3.1718 0.0000 0.0000 30.6983 2.7743 -5.5840 -0.2702 7.1250 -0.0000 -0.0000 23.9906 -34.6453 6.5919
-9.2488 16.4754 21.3499 -179.3840 2.0518 -171.1000 0.0000 0.0000 0.0000 -15.8007 -7.0493 -19.9744 11.0601 17.9644 62.9766 0.1368 7.4208 7.8479 0.7073 5.3751 14.9815 0.0000 0.0000 0.0000 26.5217 3.1398 -24.9536 -2.1449 -9.1615 26.3019 0.6408 17.9635 -5.4377 -2.7336 -10.2508 29.7927 -3.3925 -3.3696 -8.5070 0.8368 -4.1823 2.0017 2.1636 -2.2134 7.1930 -5.3873 -2.5593 1.2412 9.9204 -2.8618 -5.8559 4.3138 -1.4382 -1.8748 0.0000 -0.0000 0.0000 -88.8770 -1.2013 15.3954 11.3572 -18.8337 -1.8896 -0.0000 -0.0000 27.7753 6.1039 10.8854 1.1569 -7.1250 0.0000 -0.0000 -18.3197 40.2300 2.2409 0.0000 -0.0000 0.0000 90.7173 -6.5917 4.6957 -15.0842 24.2633 -3.2605 0.0000 0.0000 30.5009 2.4951 -5.7641 -0.2508 7.1250 -0.0000 -0.0000 23.8256 -34.8276 6.4235
-9.2026 16.4844 21.1822 -179.1480 3.1963 -171.2040 0.0000 0.0000 0.0000 -15.3338 -7.9280 -22.1487 11.7311 18.2747 65.1341 0.0725 6.8796 6.4132 0.7703 5.6042 15.6402 0.0000 0.0000 0.0000 26.9895 3.1340 -23.8606 -2.0807 -9.0321 25.8958 0.7417 18.8605 -5.2488 -2.8997 -10.5309 30.7136 -3.2556 -3.1732 -8.2603 0.8551 -3.9442 2.0149 2.1562 -2.0905 7.0401 -5.6049 -2.4562 1.3259 10.1420 -2.7312 -5.7422 4.4358 -1.3745 -1.8604 -0.0000 -0.0000 0.0000 -88.9357 -1.1856 14.8736 11.3240 -18.7831 -1.8789 -0.0000 -0.0000 27.4765 6.1778 10.8495 1.1672 -7.1250 0.0000 -0.0000 -18.2473 40.2021 2.2444 -0.0000 -0.0000 0.0000 90.5925 -6.2427 5.3261 -15.2814 24.5366 -3.3419 0.0000 0.0000 30.4613 2.1405 -5.8955 -0.2200 7.1250 -0.0000 -0.0000 23.5878 -34.9702 6.2598
-9.1575 16.5037 21.0186 -179.1210 4.3495 -171.3390 0.0000 0.0000 0.0000 -14.9818 -9.1408 -24.2396 12.1796 18.4655 66.5570 0.0687 6.2745 6.0294 0.8547 5.8960 16.4830 0.0000 0.0000 0.0000 27.1808 3.2070 -22.7355 -2.0244 -8.9167 25.5351 0.8345 19.6376 -5.0793 -3.0538 -10.7817 31.5471 -3.2547 -2.9247 -7.9511 0.7701 -3.6164 2.0122 2.1310 -1.9259 6.8313 -5.7668 -2.4448 1.3954 10.3218 -2.7266 -5.6140 4.5323 -1.3739 -1.8282 -0.0000 0.0000 0.0000 -88.8839 -1.0984 14.6428 11.3332 -18.7972 -1.8819 -0.0000 -0.0000 27.3885 6.0347 10.8878 1.1440 -7.1250 0.0000 -0.0000 -18.3787 40.2264 2.2504 -0.0000 0.0000 0.0000 90.5548 -5.9912 5.8281 -15.5037 24.8431 -3.4348 0.0000 0.0000 30.2367 1.8805 -5.8740 -0.1925 7.1250 -0.0000 -0.0000 23.3805 -34.9668 6.1982
-9.1161 16.5103 20.8538 -179.2280 5.6133 -171.5180 0.0000 0.0000 0.0000 -14.7899 -10.3591 -25.9939 12.3893 18.5504 67.2175 0.0272 5.4144 4.5806 0.6354 5.1002 14.1947 0.0000 0.0000 0.0000 27.1818 3.2834 -21.6303 -1.9871 -8.8391 25.2934 0.9510 20.5688 -4.8878 -3.1140 -10.8773 31.8673 -3.4323 -2.7076 -7.7486 0.6834 -3.3074 2.0967 2.1913 -1.7802 6.7898 -5.8381 -2.4242 1.2881 10.3542 -2.7142 -5.4268 4.5513 -1.3645 -1.7467 0.0000 -0.0000 0.0000 -88.8342 -1.0825 14.5452 11.3363 -18.8019 -1.8829 -0.0000 -0.0000 27.3603 5.7269 10.7454 1.0712 -7.1250 0.0000 -0.0000 -18.5969 40.0646 2.3568 0.0000 -0.0000 0.0000 90.4194 -5.6487 6.5439 -15.6875 25.0951 -3.5124 0.0000 0.0000 29.7262 1.7479 -5.9432 -0.1810 7.1250 -0.0000 -0.0000 23.2966 -35.0385 6.1282
-9.0774 16.4987 20.6887 -179.2930 6.9786 -171.5310 0.0000 0.0000 0.0000 -14.5486 -11.5548 -27.5804 12.3681 18.5419 67.1508 -0.0025 4.5217 3.0740 0.9043 6.0601 16.9590 0.0000 0.0000 0.0000 27.1710 3.4895 -20.7658 -1.9788 -8.8218 25.2394 1.0953 21.6993 -4.7398 -3.1123 -10.8747 31.8585 -3.4978 -2.4644 -7.8702 0.5522 -2.9602 2.2009 2.1327 -1.6120 6.9426 -5.7294 -2.3973 1.3056 10.3379 -2.6786 -5.3922 4.5229 -1.3489 -1.7430 0.0000 0.0000 0.0000 -88.6251 -1.0466 14.9147 11.4029 -18.9032 -1.9044 -0.0000 -0.0000 27.0769 5.3573 10.7033 0.9978 -7.1250 0.0000 -0.0000 -18.8950 39.9934 2.4325 0.0000 0.0000 0.0000 90.4404 -5.2609 7.1027 -15.8645 25.3365 -3.5878 0.0000 0.0000 29.2531 1.6821 -5.9845 -0.1754 7.1250 -0.0000 -0.0000 23.2569 -35.0807 6.0902
